<svg xmlns="http://www.w3.org/2000/svg" version="1.1" width="1000" height="623" viewBox="0 0 1000 623">
    <g transform="matrix(1,0,0,1,-0.6060606060606233,0.2522267206477409)">
        <svg viewBox="0 0 396 247" data-background-color="#ffffff" preserveAspectRatio="xMidYMid meet" height="623"
             width="1000" xmlns="http://www.w3.org/2000/svg">
            <g id="tight-bounds" transform="matrix(1,0,0,1,0.2400000000000091,-0.09999999999999432)">
                <svg viewBox="0 0 395.52 247.2" height="247.2" width="395.52">
                    <g>
                        <svg viewBox="0 0 395.52 247.2" height="247.2" width="395.52">
                            <mask id="032bc59c-6e10-4186-90d4-1c6573b71ea8">
                                <rect width="640" height="400" fill="white"></rect>
                                <g transform="matrix(1,0,0,1,39.55199999999999,99.37876367235832)">
                                    <svg viewBox="0 0 316.416 48.44247265528335" height="48.44247265528335"
                                         width="316.416">
                                        <g>
                                            <svg viewBox="0 0 316.416 48.44247265528335" height="48.44247265528335"
                                                 width="316.416">
                                                <g>
                                                    <svg viewBox="0 0 316.416 48.44247265528335"
                                                         height="48.44247265528335" width="316.416">
                                                        <g>
                                                            <svg viewBox="0 0 316.416 48.44247265528335"
                                                                 height="48.44247265528335" width="316.416">
                                                                <g id="SvgjsG2325">
                                                                    <svg viewBox="0 0 316.416 48.44247265528335"
                                                                         height="48.44247265528335" width="316.416"
                                                                         id="SvgjsSvg2324">
                                                                        <g>
                                                                            <svg viewBox="0 0 316.416 48.44247265528335"
                                                                                 height="48.44247265528335"
                                                                                 width="316.416">
                                                                                <g transform="matrix(1,0,0,1,0,0)">
                                                                                    <svg width="316.416"
                                                                                         viewBox="-3.6200000047683716 -41.20000076293945 304.04998779296875 47.400001525878906"
                                                                                         height="48.44247265528335"
                                                                                         data-palette-color="#f5cb5c">
                                                                                        <path d="M19.65 0.7L19.65 0.7Q14.45 0.7 10.44-1.55 6.43-3.8 4.15-7.89 1.88-11.98 1.88-17.5L1.88-17.5Q1.88-23.03 4.19-27.11 6.5-31.2 10.58-33.45 14.65-35.7 19.85-35.7L19.85-35.7Q22.55-35.7 24.93-35.13 27.3-34.55 29.08-33.65L29.08-33.65 28.48-28.53Q26.6-29.43 24.45-30.03 22.3-30.63 19.8-30.63L19.8-30.63Q15.85-30.63 13.2-28.89 10.55-27.15 9.19-24.19 7.83-21.23 7.83-17.5L7.83-17.5Q7.83-13.78 9.16-10.81 10.5-7.85 13.14-6.11 15.78-4.38 19.68-4.38L19.68-4.38Q22.25-4.38 24.36-4.94 26.48-5.5 28.48-6.45L28.48-6.45 29.08-1.33Q27.15-0.45 24.79 0.13 22.43 0.7 19.65 0.7ZM40.02 0L34.57 0 34.57-35 40.02-35 40.02 0ZM53.35 0L47.9 0 47.9-35 53.55-35 69.82-10.33 69.82-35 75.3-35 75.3 0 70.75 0 53.35-26.1 53.35 0ZM105.44 0L83.17 0 83.17-35 104.97-35 104.97-29.9 88.69-29.9 88.69-20.83 101.52-20.83 101.52-15.73 88.69-15.73 88.69-5.1 105.44-5.1 105.44 0ZM115.27 0L109.57 0 114.32-35 118.89-35 127.79-18.25 136.64-35 141.24-35 145.97 0 140.27 0 136.81-27.6 138.27-27.33 127.84-7.9 117.27-27.3 118.72-27.58 115.27 0ZM171.21-13.83L171.21-8.95 156.36-8.95 156.36-13.83 171.21-13.83ZM173.51 0L163.04-29.68 164.54-29.68 154.06 0 148.56 0 161.06-35 166.51-35 179.01 0 173.51 0ZM198.39 0.7L198.39 0.7Q193.19 0.7 189.17-1.55 185.16-3.8 182.89-7.89 180.61-11.98 180.61-17.5L180.61-17.5Q180.61-23.03 182.92-27.11 185.24-31.2 189.31-33.45 193.39-35.7 198.59-35.7L198.59-35.7Q201.29-35.7 203.66-35.13 206.04-34.55 207.81-33.65L207.81-33.65 207.21-28.53Q205.34-29.43 203.19-30.03 201.04-30.63 198.54-30.63L198.54-30.63Q194.59-30.63 191.94-28.89 189.29-27.15 187.92-24.19 186.56-21.23 186.56-17.5L186.56-17.5Q186.56-13.78 187.9-10.81 189.24-7.85 191.87-6.11 194.51-4.38 198.41-4.38L198.41-4.38Q200.99-4.38 203.1-4.94 205.21-5.5 207.21-6.45L207.21-6.45 207.81-1.33Q205.89-0.45 203.52 0.13 201.16 0.7 198.39 0.7ZM232.31-13.83L232.31-8.95 217.46-8.95 217.46-13.83 232.31-13.83ZM234.61 0L224.13-29.68 225.63-29.68 215.16 0 209.66 0 222.16-35 227.61-35 240.11 0 234.61 0ZM256.11 0L250.66 0 238.16-35 243.76-35 254.06-5.83 252.68-5.83 262.98-35 268.61-35 256.11 0ZM294.93 0L272.65 0 272.65-35 294.45-35 294.45-29.9 278.18-29.9 278.18-20.83 291-20.83 291-15.73 278.18-15.73 278.18-5.1 294.93-5.1 294.93 0Z"
                                                                                              opacity="1"
                                                                                              transform="matrix(1,0,0,1,0,0)"
                                                                                              fill="black"
                                                                                              class="wordmark-text-0"
                                                                                              id="SvgjsPath2323"
                                                                                              stroke-width="10"
                                                                                              stroke="black"
                                                                                              stroke-linejoin="round"></path>
                                                                                    </svg>
                                                                                </g>
                                                                            </svg>
                                                                        </g>
                                                                    </svg>
                                                                </g>
                                                            </svg>
                                                        </g>
                                                        <g></g>
                                                    </svg>
                                                </g>
                                            </svg>
                                        </g>
                                    </svg>
                                </g>
                            </mask>
                            <g transform="matrix(1,0,0,1,39.55199999999999,99.37876367235832)">
                                <svg viewBox="0 0 316.416 48.44247265528335" height="48.44247265528335" width="316.416">
                                    <g>
                                        <svg viewBox="0 0 316.416 48.44247265528335" height="48.44247265528335"
                                             width="316.416">
                                            <g>
                                                <svg viewBox="0 0 316.416 48.44247265528335" height="48.44247265528335"
                                                     width="316.416">
                                                    <g>
                                                        <svg viewBox="0 0 316.416 48.44247265528335"
                                                             height="48.44247265528335" width="316.416">
                                                            <g id="textblocktransform">
                                                                <svg viewBox="0 0 316.416 48.44247265528335"
                                                                     height="48.44247265528335" width="316.416"
                                                                     id="textblock">
                                                                    <g>
                                                                        <svg viewBox="0 0 316.416 48.44247265528335"
                                                                             height="48.44247265528335" width="316.416">
                                                                            <g transform="matrix(1,0,0,1,0,0)">
                                                                                <svg width="316.416"
                                                                                     viewBox="-3.6200000047683716 -41.20000076293945 304.04998779296875 47.400001525878906"
                                                                                     height="48.44247265528335"
                                                                                     data-palette-color="#f5cb5c">
                                                                                    <path d="M19.65 0.7L19.65 0.7Q14.45 0.7 10.44-1.55 6.43-3.8 4.15-7.89 1.88-11.98 1.88-17.5L1.88-17.5Q1.88-23.03 4.19-27.11 6.5-31.2 10.58-33.45 14.65-35.7 19.85-35.7L19.85-35.7Q22.55-35.7 24.93-35.13 27.3-34.55 29.08-33.65L29.08-33.65 28.48-28.53Q26.6-29.43 24.45-30.03 22.3-30.63 19.8-30.63L19.8-30.63Q15.85-30.63 13.2-28.89 10.55-27.15 9.19-24.19 7.83-21.23 7.83-17.5L7.83-17.5Q7.83-13.78 9.16-10.81 10.5-7.85 13.14-6.11 15.78-4.38 19.68-4.38L19.68-4.38Q22.25-4.38 24.36-4.94 26.48-5.5 28.48-6.45L28.48-6.45 29.08-1.33Q27.15-0.45 24.79 0.13 22.43 0.7 19.65 0.7ZM40.02 0L34.57 0 34.57-35 40.02-35 40.02 0ZM53.35 0L47.9 0 47.9-35 53.55-35 69.82-10.33 69.82-35 75.3-35 75.3 0 70.75 0 53.35-26.1 53.35 0ZM105.44 0L83.17 0 83.17-35 104.97-35 104.97-29.9 88.69-29.9 88.69-20.83 101.52-20.83 101.52-15.73 88.69-15.73 88.69-5.1 105.44-5.1 105.44 0ZM115.27 0L109.57 0 114.32-35 118.89-35 127.79-18.25 136.64-35 141.24-35 145.97 0 140.27 0 136.81-27.6 138.27-27.33 127.84-7.9 117.27-27.3 118.72-27.58 115.27 0ZM171.21-13.83L171.21-8.95 156.36-8.95 156.36-13.83 171.21-13.83ZM173.51 0L163.04-29.68 164.54-29.68 154.06 0 148.56 0 161.06-35 166.51-35 179.01 0 173.51 0ZM198.39 0.7L198.39 0.7Q193.19 0.7 189.17-1.55 185.16-3.8 182.89-7.89 180.61-11.98 180.61-17.5L180.61-17.5Q180.61-23.03 182.92-27.11 185.24-31.2 189.31-33.45 193.39-35.7 198.59-35.7L198.59-35.7Q201.29-35.7 203.66-35.13 206.04-34.55 207.81-33.65L207.81-33.65 207.21-28.53Q205.34-29.43 203.19-30.03 201.04-30.63 198.54-30.63L198.54-30.63Q194.59-30.63 191.94-28.89 189.29-27.15 187.92-24.19 186.56-21.23 186.56-17.5L186.56-17.5Q186.56-13.78 187.9-10.81 189.24-7.85 191.87-6.11 194.51-4.38 198.41-4.38L198.41-4.38Q200.99-4.38 203.1-4.94 205.21-5.5 207.21-6.45L207.21-6.45 207.81-1.33Q205.89-0.45 203.52 0.13 201.16 0.7 198.39 0.7ZM232.31-13.83L232.31-8.95 217.46-8.95 217.46-13.83 232.31-13.83ZM234.61 0L224.13-29.68 225.63-29.68 215.16 0 209.66 0 222.16-35 227.61-35 240.11 0 234.61 0ZM256.11 0L250.66 0 238.16-35 243.76-35 254.06-5.83 252.68-5.83 262.98-35 268.61-35 256.11 0ZM294.93 0L272.65 0 272.65-35 294.45-35 294.45-29.9 278.18-29.9 278.18-20.83 291-20.83 291-15.73 278.18-15.73 278.18-5.1 294.93-5.1 294.93 0Z"
                                                                                          opacity="1"
                                                                                          transform="matrix(1,0,0,1,0,0)"
                                                                                          fill="#f5cb5c"
                                                                                          class="wordmark-text-0"
                                                                                          id="text-0"></path>
                                                                                </svg>
                                                                            </g>
                                                                        </svg>
                                                                    </g>
                                                                </svg>
                                                            </g>
                                                        </svg>
                                                    </g>
                                                    <g></g>
                                                </svg>
                                            </g>
                                        </svg>
                                    </g>
                                </svg>
                            </g>
                            <g mask="url(#032bc59c-6e10-4186-90d4-1c6573b71ea8)">
                                <g transform="matrix(2.6849336436850764, 0, 0, 2.6849336436850764, 68.01284314867226, 1)">
                                    <svg xmlns="http://www.w3.org/2000/svg" version="1.1" x="0" y="0"
                                         viewBox="1.5415364503860474 4.1827898025512695 96.6483154296875 91.32441711425781"
                                         enable-background="new 0 0 100 100" xml:space="preserve"
                                         height="91.32441711425781" width="96.6483154296875" class="icon-none"
                                         data-fill-palette-color="accent" id="none"><path fill-rule="evenodd" clip-rule="evenodd" d="M48.449 81.305l10.893-22.282-0.926-3.263-6.188 6.407c-1.939 1.721-4.82-1.219-2.925-3.116l10.76-12.333c1.177-0.837 1.705-1.131 2.908-1.762 1.354-0.632 1.648-0.632 2.914 0.513l9.627 9.805c0.353 0.383 0.47 0.294 0.604 1.131v4.806c0 2.133-3.97 2.104-4-0.027v-3.75l-3.602-2.586-1.307 3.57c2.997 8.012 5.451 15.273 8.451 23.254 1.354 3.78-3.291 5.631-5.13 1.972l-7.495-19.919c-3.381 6.852-6.365 13.35-9.747 20.169C51.36 87.421 46.597 84.703 48.449 81.305z" fill="#f5cb5c"></path>
                                        <path d="M73.346 85.913c-1.271 0-2.392-0.78-3.075-2.141l-7.272-19.324c-1.525 3.103-2.992 6.174-4.412 9.15-1.618 3.389-3.291 6.893-5.042 10.423-0.63 1.155-1.635 1.812-2.763 1.812-1.056 0-2.089-0.591-2.632-1.505-0.563-0.949-0.547-2.071 0.047-3.161l10.838-22.172-0.759-2.676-5.841 6.048c-0.453 0.403-0.971 0.608-1.514 0.608 0 0 0 0 0 0-0.981 0-1.945-0.673-2.345-1.636-0.367-0.885-0.176-1.793 0.523-2.492l10.747-12.319c1.231-0.885 1.766-1.185 2.991-1.827 0.653-0.305 1.051-0.458 1.445-0.458 0.576 0 1.038 0.327 1.796 1.012l9.639 9.816c0.077 0.084 0.138 0.14 0.19 0.188 0.27 0.251 0.383 0.411 0.492 1.099l0.004 4.852c0 1.287-1.17 1.873-2.257 1.873-1.139 0-2.302-0.651-2.319-1.896v-3.606l-3.174-2.278-1.14 3.114c1.448 3.872 2.789 7.626 4.087 11.257 1.372 3.839 2.791 7.809 4.327 11.896 0.426 1.188 0.33 2.308-0.267 3.155C75.138 85.469 74.272 85.912 73.346 85.913zM63.068 63.002l7.729 20.54c0.57 1.131 1.503 1.795 2.548 1.795 0.739 0 1.429-0.353 1.844-0.942 0.486-0.69 0.557-1.623 0.197-2.626-1.536-4.088-2.956-8.06-4.329-11.901-1.308-3.66-2.66-7.444-4.12-11.349l-0.037-0.1 1.474-4.026 4.029 2.894v3.897c0.013 0.909 0.913 1.324 1.743 1.324 0.81 0 1.681-0.405 1.681-1.297v-4.806c-0.085-0.512-0.143-0.564-0.313-0.723-0.062-0.058-0.132-0.123-0.215-0.213l-9.62-9.798c-0.719-0.649-1.048-0.851-1.397-0.851-0.285 0-0.638 0.14-1.189 0.397-1.188 0.623-1.711 0.917-2.863 1.736L49.52 59.24c-0.734 0.735-0.572 1.492-0.412 1.879 0.308 0.742 1.07 1.28 1.813 1.28 0.406 0 0.781-0.15 1.116-0.448l6.521-6.751 1.093 3.85L48.708 81.432c-0.499 0.915-0.519 1.835-0.063 2.603 0.441 0.743 1.28 1.224 2.137 1.224 0.924 0 1.724-0.534 2.252-1.502 1.743-3.517 3.415-7.019 5.032-10.405 1.513-3.169 3.077-6.444 4.71-9.754L63.068 63.002z"
                                              fill="#f5cb5c"></path>
                                        <path fill-rule="evenodd" clip-rule="evenodd"
                                              d="M60.4 36.532c2 0 3.646 1.647 3.646 3.632 0 1.998-1.646 3.63-3.646 3.63-1.984 0-3.63-1.632-3.63-3.63C56.771 38.18 58.416 36.532 60.4 36.532z"
                                              fill="#f5cb5c"></path>
                                        <path d="M60.4 44.082c-2.16 0-3.918-1.758-3.918-3.918 0-2.162 1.758-3.92 3.918-3.92 2.169 0 3.934 1.758 3.934 3.92C64.334 42.324 62.569 44.082 60.4 44.082zM60.4 36.82c-1.812 0-3.342 1.531-3.342 3.344 0 1.843 1.499 3.342 3.342 3.342 1.852 0 3.357-1.499 3.357-3.342C63.758 38.32 62.252 36.82 60.4 36.82z"
                                              fill="#f5cb5c"></path>
                                        <path fill-rule="evenodd" clip-rule="evenodd"
                                              d="M1.943 23.584c-0.765 4.63 1.984 11.892-0.397 16.976-0.088 6.042 1.16 11.54 0.677 17.858-0.235 2.75-1 5.939-0.323 8.645 0.853 3.425 3.836 8.789 4.601 13.023 2.616 1.586 1.529 7.659 4.277 9.835 1.72 0.22 5.689 0.307 5.689 1.704 1.293 0 9.819 0.044 9.819 1.354 4.276 0 8.377 1.982 12.757 2.35 3.999 0.311 7.57 0.397 12.023-1.307 6.542 0.354 13.566-0.089 20.153-0.089l14.375-0.41c1.442 0 2.617-0.544 4.864-1.941 1.179-1.176 2.883-1.984 4.412-3.425 0.822-1.852 2.791-3.16 2.983-5.498 0.544-6.939 0.484-12.479-0.587-19.462L94.383 38.18c-0.54-5.866 0.223-12.891 0.764-18.758 0.224-3.32-1.482-7.525-2.306-10.493-0.264 0-2.515-3.426-3.688-3.925C84.152 5.681 76.04 6.678 72.924 6.18c-4.453-0.721-12.127-2.662-18.653-1.765-2.66 0.367-13.479 0.411-16.727 1.808L19.111 6.399c-4.41 0-9.143 1.266-12.7 3.425C3.972 14.206 2.575 19.879 1.943 23.584M19.023 13.352c1.895-1.411 7.894-0.822 9.29-0.822 1.132 2.263 1.852 5.366 2.028 12.082l-0.044 8.746c0.178 2.381 2.337 2.573 2.337 0l0.044-12.171c0-2.484 1-6.805 1.544-7.936 1.207-2.513 2.072-2.469 3.322-0.353 1.588 2.528 2.22 8.289 2.22 10.142 0.264 1.837 2.16 1.662 2.073 0 0-2.617 1.484-10.099 3.909-12.126 1.31-1.088 2.617-1.176 5.557-1.044 0.485 0.736 0.896 2.263 1.117 3.661 0.5 2.969 0.853 5.952 0.853 7.525 0 2.072 2.176 2.47 2.176-0.087 0-2.265 0.265-5.865 0.396-6.63 0.234-1.265 0.413-3.294 1.677-3.924 1.983-1.03 5.939-0.486 6.849 1.264 2.118 4.143 3.47 11.582 3.146 16.859-0.131 2.924 2.439 2.66 2.439 0 0-1.486 0.044-5.012 0.501-6.174 0.677-1.718 1.617-4.909 2.881-5.364 0.396-3.206 6.482-0.896 8.597-1.178 2.442-0.263 4.425-1.792 6-3.056l1.674 14.008c0.177 1.529 0.266 4.733 0.809 6.086 0.088 3.792 0.543 10.098 0.81 12.76l0.265 16.491-0.531 13.567c0 1.027-0.819 6.629-2.114 6.629 0 1.293-3.792 3.469-5.102 3.469 0 2.645-8.202 1.309-9.776 1.309l-19.194-0.236H38.807c-1.308 0-7.701 0.501-7.701-1.072-3.47 0-3.97-8.393-4.367-11.01-0.675-4.454-1.719-8.921-1.719-14.228 0.175-1.896-1.897-2.397-1.897 0 0 5.04-2.116 8.731-4.233 13.022-2.572-5.585-6.525-9.878-6.525-17.037 0-0.853-0.324-4.645-0.235-7.216 0.044-1.397-1.837-1.485-1.837-0.178 0 0.721-0.912 6.676-1.133 7.66-0.22 1-0.808 3.704-1.352 4.278C6.367 57.419 6 49.351 6 45.618c0-4.015-0.545-9.336 1.043-12.76 0.764-1.618 2.881-4.645 2.116-6.482 0.265-0.588 0.265-0.323 0-0.867 0.265-0.765 0-3.558 1.574-3.558 0-0.499 3.336-2.837 3.837-2.837 0.852-1.896 0.939-3.792 1.748-3.792C16.318 14.117 18.171 13.661 19.023 13.352z"
                                              fill="#f5cb5c"></path></svg>
                                </g>
                            </g>
                        </svg>
                    </g>
                    <defs></defs>
                </svg>
                <rect width="395.52" height="247.2" fill="none" stroke="none" visibility="hidden"></rect>
            </g>
        </svg>
    </g>
</svg>